<?xml version="1.0" encoding="UTF-8"?>
<svg width="800px" height="600px" viewBox="0 0 800 600" version="1.1" xmlns="http://www.w3.org/2000/svg">
    <g stroke="none" stroke-width="1" fill="none" fill-rule="evenodd">
        <circle fill="#FFFFFF" cx="400" cy="300" r="150"/>
        <path d="M400,200 C360,200 330,230 330,270 C330,310 360,340 400,340 C440,340 470,310 470,270 C470,230 440,200 400,200 M380,260 C380,250 390,240 400,240 C410,240 420,250 420,260 C420,270 410,280 400,280 C390,280 380,270 380,260" fill="#4481eb"/>
        <path d="M320,380 C320,380 360,420 400,420 C440,420 480,380 480,380" stroke="#4481eb" stroke-width="20" stroke-linecap="round"/>
    </g>
</svg> 